{"title":"Ocean Giants: Deep Thinkers S01E02 720p x264 aac mp4 bbc subtitl","uid":6620648,"size":1093318417,"categoryP":"video","categoryS":"hd___tv_shows","magnet":"?xt=urn:btih:9e5c13749ecd2877e6cc863447b6fc3886b26fb2&amp;dn=Ocean+Giants%3A+Deep+Thinkers+S01E02+720p+x264+aac+mp4+bbc+subtitl&amp;tr=udp%3A%2F%2Ftracker.openbittorrent.com%3A80&amp;tr=udp%3A%2F%2Fopen.demonii.com%3A1337&amp;tr=udp%3A%2F%2Ftracker.coppersurfer.tk%3A6969&amp;tr=udp%3A%2F%2Fexodus.desync.com%3A6969","seeders":0,"leechers":1,"uploader":"aularon","files":-1,"time":1313977729,"description":"Ocean Giants: Deep Thinkers S01E02 720p x264 aac mp4 bbc subtitles [aularon]\n\n- - -\nSynopsis\n- - -\nHumans have long wondered if the universe may harbour other intelligent life forms. But perhaps we need look no further than our oceans?\n\nWhales and dolphins, like humans, have large brains, are quick to learn new behaviours and use a wide range of sounds to communicate with others in their society. But how close are their minds to ours? In the Bahamas, Professor Denise Herzing believes she is very close to an answer, theorising that she will be able to hold a conversation with wild dolphins in their own language within five years.\n\nIn Western Australia, dolphins rely on their versatile and inventive brains to survive in a marine desert. In Alaska, humpback whales gather into alliances in which individuals pool their specialised talents to increase their hunting success. We discover how young spotted dolphins learn their individual names and the social etiquette of their pod, and how being curious about new objects leads Caribbean bottlenose dolphins to self-awareness and even to self-obsession. Finally, the film shows a remarkable group of Mexican grey whales, who seem able to empathize with humans and may even have a concept of forgiveness.\n\n\n\n- - -\nURL\n- - -\n   &lt;a href=&quot;\nhttp://www.bbc.co.uk/programmes/b013wpxz&quot; rel=&quot;nofollow&quot; target=&quot;_NEW&quot;&gt;\nhttp://www.bbc.co.uk/programmes/b013wpxz&lt;/a&gt;\n\n\n- - -\nTechnical Details\n- - -\nGeneral\nComplete name                    : BBC.Ocean.Giants.S01E02.Deep.Thinkers/Ocean_Giants_-_2._Deep_Thinkers_b013wpxz_default.mp4\nFormat                           : MPEG-4\nFormat profile                   : Base Media\nCodec ID                         : isom\nFile size                        : 1.02 GiB\nDuration                         : 59mn 2s\nOverall bit rate                 : 2 469 Kbps\nMovie name                       : Ocean Giants: Deep Thinkers\nAlbum                            : Ocean Giants\nTrack name/Position              : 2\nTrack name/Total                 : 0\nPerformer                        : Ocean Giants\nGenre                            : Factual,Science &amp; Nature\nRecorded date                    : 2011-08-21T21:00:00+01:00\nWriting application              : Lavf53.6.0\nCover                            : Yes\nComment                          : Recorded using get_iplayer, by Aularon.\nrtng                             : 2\nstik                             : 1\ndesc                             : Documentary focusing on the intelligence of whales and dolphins, as Professor Denise Herzing attempts to find out how close their minds are to those of humans.\ntvnn                             : BBC One\ntvsh                             : Ocean Giants\ntven                             : b013wpxz\ncatg                             : Factual,Science &amp; Nature\ntves                             : 2\n\nVideo\nID                               : 1\nFormat                           : AVC\nFormat/Info                      : Advanced Video Codec\nFormat profile                   : &lt;a class=&quot;__cf_email__&quot; href=&quot;/cdn-cgi/l/email-protection&quot; data-cfemail=&quot;e8a0818f80a8a4dcc6d9&quot;&gt;[email&amp;#160;protected]&lt;/a&gt;&lt;script cf-hash='f9e31' type=&quot;text/javascript&quot;&gt;\n/* &lt;![CDATA[ */!function(){try{var t=&quot;currentScript&quot;in document?document.currentScript:function(){for(var t=document.getElementsByTagName(&quot;script&quot;),e=t.length;e--;)if(t[e].getAttribute(&quot;cf-hash&quot;))return t[e]}();if(t&amp;&amp;t.previousSibling){var e,r,n,i,c=t.previousSibling,a=c.getAttribute(&quot;data-cfemail&quot;);if(a){for(e=&quot;&quot;,r=parseInt(a.substr(0,2),16),n=2;a.length-n;n+=2)i=parseInt(a.substr(n,2),16)^r,e+=String.fromCharCode(i);e=document.createTextNode(e),c.parentNode.replaceChild(e,c)}}}catch(u){}}();/* ]]&gt; */&lt;/script&gt;\nFormat settings, CABAC           : Yes\nFormat settings, ReFrames        : 6 frames\nCodec ID                         : avc1\nCodec ID/Info                    : Advanced Video Coding\nDuration                         : 59mn 2s\nBit rate mode                    : Variable\nBit rate                         : 2 369 Kbps\nMaximum bit rate                 : 3 500 Kbps\nWidth                            : 1 280 pixels\nHeight                           : 720 pixels\nDisplay aspect ratio             : 16:9\nFrame rate mode                  : Constant\nFrame rate                       : 25.000 fps\nStandard                         : PAL\nColor space                      : YUV\nChroma subsampling               : 4:2:0\nBit depth                        : 8 bits\nScan type                        : Progressive\nBits/(Pixel*Frame)               : 0.103\nStream size                      : 1 000 MiB (96%)\n\nAudio\nID                               : 2\nFormat                           : AAC\nFormat/Info                      : Advanced Audio Codec\nFormat profile                   : HE-AAC / LC\nCodec ID                         : 40\nDuration                         : 59mn 2s\nBit rate mode                    : Constant\nBit rate                         : 96.0 Kbps\nChannel(s)                       : 2 channels\nChannel positions                : Front: L R\nSampling rate                    : 48.0 KHz / 24.0 KHz\nCompression mode                 : Lossy\nStream size                      : 40.0 MiB (4%)\n","torrent":{"xt":"urn:btih:9e5c13749ecd2877e6cc863447b6fc3886b26fb2","amp;dn":"Ocean+Giants%3A+Deep+Thinkers+S01E02+720p+x264+aac+mp4+bbc+subtitl","amp;tr":["udp%3A%2F%2Ftracker.openbittorrent.com%3A80","udp%3A%2F%2Fopen.demonii.com%3A1337","udp%3A%2F%2Ftracker.coppersurfer.tk%3A6969","udp%3A%2F%2Fexodus.desync.com%3A6969"],"infoHash":"9e5c13749ecd2877e6cc863447b6fc3886b26fb2","infoHashBuffer":{"type":"Buffer","data":[158,92,19,116,158,205,40,119,230,204,134,52,71,182,252,56,134,178,111,178]},"announce":[],"urlList":[]}}